<?xml version="1.0" encoding="UTF-8" standalone="no"?>
<!DOCTYPE svg PUBLIC "-//W3C//DTD SVG 1.1//EN" "http://www.w3.org/Graphics/SVG/1.1/DTD/svg11.dtd">
<svg width="100%" height="100%" viewBox="0 0 273 71" version="1.1" xmlns="http://www.w3.org/2000/svg" xmlns:xlink="http://www.w3.org/1999/xlink" xml:space="preserve" xmlns:serif="http://www.serif.com/" style="fill-rule:evenodd;clip-rule:evenodd;stroke-linejoin:round;stroke-miterlimit:2;">
    <g transform="matrix(1,0,0,1,-219.804,-252.407)">
        <g transform="matrix(1,0,0,1,81.8816,-23.9331)">
            <g transform="matrix(7.58317,0,0,7.58317,-1260.75,-1409.33)">
                <g transform="matrix(12,0,0,12,183.964,230.822)">
                    <path d="M0.076,-0.325L0.449,-0.157L0.449,-0.128L0.04,-0.313L0.04,-0.337L0.449,-0.522L0.449,-0.494L0.076,-0.325Z" style="fill:rgb(155,155,155);fill-rule:nonzero;"/>
                </g>
                <g transform="matrix(12,0,0,12,210.231,230.822)">
                    <path d="M0.049,0.061L0.021,0.061L0.317,-0.711L0.346,-0.711L0.049,0.061Z" style="fill:rgb(155,155,155);fill-rule:nonzero;"/>
                </g>
                <g transform="matrix(12,0,0,12,214.813,230.822)">
                    <path d="M0.426,-0.326L0.056,-0.495L0.056,-0.523L0.464,-0.339L0.464,-0.314L0.056,-0.129L0.056,-0.158L0.426,-0.326Z" style="fill:rgb(155,155,155);fill-rule:nonzero;"/>
                </g>
            </g>
            <g transform="matrix(9.5581,0,0,9.5581,-1572.82,-1866.28)">
                <g transform="matrix(12,0,0,12,183.964,230.822)">
                    <path d="M0.187,-0.528L0.191,-0.469C0.228,-0.515 0.279,-0.538 0.343,-0.538C0.411,-0.538 0.458,-0.511 0.483,-0.458C0.52,-0.511 0.573,-0.538 0.642,-0.538C0.699,-0.538 0.742,-0.521 0.77,-0.488C0.798,-0.455 0.812,-0.404 0.812,-0.337L0.812,-0L0.67,-0L0.67,-0.337C0.67,-0.367 0.664,-0.389 0.652,-0.403C0.641,-0.416 0.62,-0.423 0.59,-0.423C0.548,-0.423 0.519,-0.403 0.502,-0.363L0.503,-0L0.362,-0L0.362,-0.336C0.362,-0.367 0.356,-0.389 0.344,-0.403C0.332,-0.417 0.311,-0.423 0.282,-0.423C0.242,-0.423 0.213,-0.407 0.195,-0.374L0.195,-0L0.054,-0L0.054,-0.528L0.187,-0.528Z" style="fill:rgb(155,155,155);fill-rule:nonzero;"/>
                </g>
                <g transform="matrix(12,0,0,12,193.201,230.822)">
                    <path d="M0.297,0.01C0.22,0.01 0.157,-0.014 0.108,-0.062C0.059,-0.109 0.035,-0.172 0.035,-0.251L0.035,-0.265C0.035,-0.318 0.045,-0.366 0.066,-0.407C0.086,-0.449 0.115,-0.482 0.153,-0.504C0.191,-0.527 0.234,-0.538 0.282,-0.538C0.354,-0.538 0.411,-0.515 0.452,-0.47C0.494,-0.424 0.515,-0.36 0.515,-0.276L0.515,-0.218L0.178,-0.218C0.183,-0.184 0.197,-0.156 0.219,-0.135C0.242,-0.114 0.271,-0.104 0.307,-0.104C0.361,-0.104 0.403,-0.124 0.434,-0.163L0.503,-0.085C0.482,-0.056 0.454,-0.032 0.417,-0.015C0.381,0.001 0.341,0.01 0.297,0.01ZM0.281,-0.424C0.253,-0.424 0.231,-0.414 0.213,-0.396C0.196,-0.377 0.185,-0.35 0.18,-0.314L0.376,-0.314L0.376,-0.326C0.375,-0.357 0.367,-0.381 0.351,-0.398C0.334,-0.415 0.311,-0.424 0.281,-0.424Z" style="fill:rgb(155,155,155);fill-rule:nonzero;"/>
                </g>
            </g>
        </g>
    </g>
</svg>
